<mxfile host="app.diagrams.net" agent="Mozilla/5.0 (Windows NT 10.0; Win64; x64) AppleWebKit/537.36 (KHTML, like Gecko) Chrome/135.0.0.0 Safari/537.36" version="26.2.10">
  <diagram name="Pagina-1" id="cUpGdGC9oQALXYbt01dE">
    <mxGraphModel dx="1735" dy="1658" grid="1" gridSize="10" guides="1" tooltips="1" connect="1" arrows="1" fold="1" page="1" pageScale="1" pageWidth="827" pageHeight="1169" math="0" shadow="0">
      <root>
        <mxCell id="0" />
        <mxCell id="1" parent="0" />
        <mxCell id="0n03NGKNRaiiEo8_zls6-3" value="Gestione database" style="html=1;dropTarget=0;whiteSpace=wrap;" vertex="1" parent="1">
          <mxGeometry x="440" y="240" width="160" height="80" as="geometry" />
        </mxCell>
        <mxCell id="0n03NGKNRaiiEo8_zls6-4" value="" style="shape=module;jettyWidth=8;jettyHeight=4;" vertex="1" parent="0n03NGKNRaiiEo8_zls6-3">
          <mxGeometry x="1" width="20" height="20" relative="1" as="geometry">
            <mxPoint x="-27" y="7" as="offset" />
          </mxGeometry>
        </mxCell>
        <mxCell id="0n03NGKNRaiiEo8_zls6-5" value="Gestione ricerca" style="html=1;dropTarget=0;whiteSpace=wrap;" vertex="1" parent="1">
          <mxGeometry x="120" y="40" width="160" height="80" as="geometry" />
        </mxCell>
        <mxCell id="0n03NGKNRaiiEo8_zls6-6" value="" style="shape=module;jettyWidth=8;jettyHeight=4;" vertex="1" parent="0n03NGKNRaiiEo8_zls6-5">
          <mxGeometry x="1" width="20" height="20" relative="1" as="geometry">
            <mxPoint x="-27" y="7" as="offset" />
          </mxGeometry>
        </mxCell>
        <mxCell id="0n03NGKNRaiiEo8_zls6-7" value="Gestore email" style="html=1;dropTarget=0;whiteSpace=wrap;" vertex="1" parent="1">
          <mxGeometry x="760" y="-160" width="160" height="80" as="geometry" />
        </mxCell>
        <mxCell id="0n03NGKNRaiiEo8_zls6-8" value="" style="shape=module;jettyWidth=8;jettyHeight=4;" vertex="1" parent="0n03NGKNRaiiEo8_zls6-7">
          <mxGeometry x="1" width="20" height="20" relative="1" as="geometry">
            <mxPoint x="-27" y="7" as="offset" />
          </mxGeometry>
        </mxCell>
        <mxCell id="0n03NGKNRaiiEo8_zls6-9" value="Registrazione" style="html=1;dropTarget=0;whiteSpace=wrap;fontFamily=Helvetica;" vertex="1" parent="1">
          <mxGeometry x="760" y="40" width="160" height="80" as="geometry" />
        </mxCell>
        <mxCell id="0n03NGKNRaiiEo8_zls6-10" value="" style="shape=module;jettyWidth=8;jettyHeight=4;" vertex="1" parent="0n03NGKNRaiiEo8_zls6-9">
          <mxGeometry x="1" width="20" height="20" relative="1" as="geometry">
            <mxPoint x="-27" y="7" as="offset" />
          </mxGeometry>
        </mxCell>
        <mxCell id="0n03NGKNRaiiEo8_zls6-11" value="Login" style="html=1;dropTarget=0;whiteSpace=wrap;" vertex="1" parent="1">
          <mxGeometry x="760" y="240" width="160" height="80" as="geometry" />
        </mxCell>
        <mxCell id="0n03NGKNRaiiEo8_zls6-12" value="" style="shape=module;jettyWidth=8;jettyHeight=4;" vertex="1" parent="0n03NGKNRaiiEo8_zls6-11">
          <mxGeometry x="1" width="20" height="20" relative="1" as="geometry">
            <mxPoint x="-27" y="7" as="offset" />
          </mxGeometry>
        </mxCell>
        <mxCell id="0n03NGKNRaiiEo8_zls6-13" value="Gestione profilo" style="html=1;dropTarget=0;whiteSpace=wrap;" vertex="1" parent="1">
          <mxGeometry x="120" y="440" width="160" height="80" as="geometry" />
        </mxCell>
        <mxCell id="0n03NGKNRaiiEo8_zls6-14" value="" style="shape=module;jettyWidth=8;jettyHeight=4;" vertex="1" parent="0n03NGKNRaiiEo8_zls6-13">
          <mxGeometry x="1" width="20" height="20" relative="1" as="geometry">
            <mxPoint x="-27" y="7" as="offset" />
          </mxGeometry>
        </mxCell>
        <mxCell id="0n03NGKNRaiiEo8_zls6-15" value="Gestione segnalazione&amp;nbsp;" style="html=1;dropTarget=0;whiteSpace=wrap;" vertex="1" parent="1">
          <mxGeometry x="120" y="240" width="160" height="80" as="geometry" />
        </mxCell>
        <mxCell id="0n03NGKNRaiiEo8_zls6-16" value="" style="shape=module;jettyWidth=8;jettyHeight=4;" vertex="1" parent="0n03NGKNRaiiEo8_zls6-15">
          <mxGeometry x="1" width="20" height="20" relative="1" as="geometry">
            <mxPoint x="-27" y="7" as="offset" />
          </mxGeometry>
        </mxCell>
        <mxCell id="0n03NGKNRaiiEo8_zls6-17" value="Gestione mappe" style="html=1;dropTarget=0;whiteSpace=wrap;" vertex="1" parent="1">
          <mxGeometry x="440" y="440" width="160" height="80" as="geometry" />
        </mxCell>
        <mxCell id="0n03NGKNRaiiEo8_zls6-18" value="" style="shape=module;jettyWidth=8;jettyHeight=4;" vertex="1" parent="0n03NGKNRaiiEo8_zls6-17">
          <mxGeometry x="1" width="20" height="20" relative="1" as="geometry">
            <mxPoint x="-27" y="7" as="offset" />
          </mxGeometry>
        </mxCell>
        <mxCell id="0n03NGKNRaiiEo8_zls6-26" value="" style="ellipse;whiteSpace=wrap;html=1;align=center;aspect=fixed;fillColor=none;strokeColor=none;resizable=0;perimeter=centerPerimeter;rotatable=0;allowArrows=0;points=[];outlineConnect=1;" vertex="1" parent="1">
          <mxGeometry x="565" y="190" width="10" height="10" as="geometry" />
        </mxCell>
        <mxCell id="0n03NGKNRaiiEo8_zls6-30" value="" style="shape=requiredInterface;html=1;verticalLabelPosition=bottom;sketch=0;direction=west;" vertex="1" parent="1">
          <mxGeometry x="990" y="70" width="10" height="20" as="geometry" />
        </mxCell>
        <mxCell id="0n03NGKNRaiiEo8_zls6-31" value="" style="endArrow=none;html=1;rounded=0;exitX=1;exitY=0.5;exitDx=0;exitDy=0;entryX=1;entryY=0.5;entryDx=0;entryDy=0;entryPerimeter=0;" edge="1" parent="1" source="0n03NGKNRaiiEo8_zls6-9" target="0n03NGKNRaiiEo8_zls6-30">
          <mxGeometry width="50" height="50" relative="1" as="geometry">
            <mxPoint x="960" y="220" as="sourcePoint" />
            <mxPoint x="990" y="40" as="targetPoint" />
          </mxGeometry>
        </mxCell>
        <mxCell id="0n03NGKNRaiiEo8_zls6-37" value="" style="shape=requiredInterface;html=1;verticalLabelPosition=bottom;sketch=0;direction=west;" vertex="1" parent="1">
          <mxGeometry x="990" y="270" width="10" height="20" as="geometry" />
        </mxCell>
        <mxCell id="0n03NGKNRaiiEo8_zls6-39" value="" style="endArrow=none;html=1;rounded=0;entryX=1;entryY=0.5;entryDx=0;entryDy=0;entryPerimeter=0;exitX=1;exitY=0.5;exitDx=0;exitDy=0;" edge="1" parent="1" source="0n03NGKNRaiiEo8_zls6-11" target="0n03NGKNRaiiEo8_zls6-37">
          <mxGeometry width="50" height="50" relative="1" as="geometry">
            <mxPoint x="940" y="100" as="sourcePoint" />
            <mxPoint x="1010" y="100" as="targetPoint" />
          </mxGeometry>
        </mxCell>
        <mxCell id="0n03NGKNRaiiEo8_zls6-40" value="Credenziali login" style="text;html=1;align=center;verticalAlign=middle;resizable=0;points=[];autosize=1;strokeColor=none;fillColor=none;" vertex="1" parent="1">
          <mxGeometry x="1000" y="265" width="110" height="30" as="geometry" />
        </mxCell>
        <mxCell id="0n03NGKNRaiiEo8_zls6-42" value="" style="ellipse;whiteSpace=wrap;html=1;" vertex="1" parent="1">
          <mxGeometry x="-10" y="30" width="20" height="20" as="geometry" />
        </mxCell>
        <mxCell id="0n03NGKNRaiiEo8_zls6-44" value="" style="endArrow=none;html=1;rounded=0;entryX=0;entryY=0;entryDx=0;entryDy=0;exitX=1;exitY=0.5;exitDx=0;exitDy=0;" edge="1" parent="1" source="0n03NGKNRaiiEo8_zls6-42" target="0n03NGKNRaiiEo8_zls6-5">
          <mxGeometry width="50" height="50" relative="1" as="geometry">
            <mxPoint x="30" y="60" as="sourcePoint" />
            <mxPoint x="110" y="79.5" as="targetPoint" />
          </mxGeometry>
        </mxCell>
        <mxCell id="0n03NGKNRaiiEo8_zls6-45" value="Filtri" style="text;html=1;align=center;verticalAlign=middle;resizable=0;points=[];autosize=1;strokeColor=none;fillColor=none;" vertex="1" parent="1">
          <mxGeometry x="-45" y="105" width="50" height="30" as="geometry" />
        </mxCell>
        <mxCell id="0n03NGKNRaiiEo8_zls6-46" value="" style="shape=requiredInterface;html=1;verticalLabelPosition=bottom;sketch=0;" vertex="1" parent="1">
          <mxGeometry x="-5" y="110" width="10" height="20" as="geometry" />
        </mxCell>
        <mxCell id="0n03NGKNRaiiEo8_zls6-48" value="" style="endArrow=none;html=1;rounded=0;entryX=0;entryY=1;entryDx=0;entryDy=0;exitX=1;exitY=0.5;exitDx=0;exitDy=0;exitPerimeter=0;" edge="1" parent="1" source="0n03NGKNRaiiEo8_zls6-46" target="0n03NGKNRaiiEo8_zls6-5">
          <mxGeometry width="50" height="50" relative="1" as="geometry">
            <mxPoint x="20" y="50" as="sourcePoint" />
            <mxPoint x="130" y="50" as="targetPoint" />
          </mxGeometry>
        </mxCell>
        <mxCell id="0n03NGKNRaiiEo8_zls6-49" value="Risultati ricerca" style="text;html=1;align=center;verticalAlign=middle;resizable=0;points=[];autosize=1;strokeColor=none;fillColor=none;" vertex="1" parent="1">
          <mxGeometry x="-110" y="25" width="110" height="30" as="geometry" />
        </mxCell>
        <mxCell id="0n03NGKNRaiiEo8_zls6-51" value="" style="endArrow=none;html=1;rounded=0;entryX=0;entryY=0;entryDx=0;entryDy=0;exitX=1;exitY=0.5;exitDx=0;exitDy=0;" edge="1" parent="1" source="0n03NGKNRaiiEo8_zls6-53" target="0n03NGKNRaiiEo8_zls6-13">
          <mxGeometry width="50" height="50" relative="1" as="geometry">
            <mxPoint x="5" y="440" as="sourcePoint" />
            <mxPoint x="160" y="410" as="targetPoint" />
          </mxGeometry>
        </mxCell>
        <mxCell id="0n03NGKNRaiiEo8_zls6-53" value="" style="ellipse;whiteSpace=wrap;html=1;" vertex="1" parent="1">
          <mxGeometry x="-10" y="430" width="20" height="20" as="geometry" />
        </mxCell>
        <mxCell id="0n03NGKNRaiiEo8_zls6-55" value="Modifica dati personali" style="text;html=1;align=center;verticalAlign=middle;resizable=0;points=[];autosize=1;strokeColor=none;fillColor=none;" vertex="1" parent="1">
          <mxGeometry x="-145" y="425" width="140" height="30" as="geometry" />
        </mxCell>
        <mxCell id="0n03NGKNRaiiEo8_zls6-56" value="" style="endArrow=none;html=1;rounded=0;entryX=0;entryY=0.5;entryDx=0;entryDy=0;exitX=1;exitY=0.5;exitDx=0;exitDy=0;" edge="1" parent="1" source="0n03NGKNRaiiEo8_zls6-57" target="0n03NGKNRaiiEo8_zls6-15">
          <mxGeometry width="50" height="50" relative="1" as="geometry">
            <mxPoint x="20" y="450" as="sourcePoint" />
            <mxPoint x="130" y="450" as="targetPoint" />
          </mxGeometry>
        </mxCell>
        <mxCell id="0n03NGKNRaiiEo8_zls6-57" value="" style="ellipse;whiteSpace=wrap;html=1;" vertex="1" parent="1">
          <mxGeometry x="-10" y="270" width="20" height="20" as="geometry" />
        </mxCell>
        <mxCell id="0n03NGKNRaiiEo8_zls6-58" value="Modifica segnalazione" style="text;html=1;align=center;verticalAlign=middle;resizable=0;points=[];autosize=1;strokeColor=none;fillColor=none;" vertex="1" parent="1">
          <mxGeometry x="-145" y="265" width="140" height="30" as="geometry" />
        </mxCell>
        <mxCell id="0n03NGKNRaiiEo8_zls6-59" value="Crea segnalazione" style="text;html=1;align=center;verticalAlign=middle;resizable=0;points=[];autosize=1;strokeColor=none;fillColor=none;" vertex="1" parent="1">
          <mxGeometry x="-125" y="225" width="120" height="30" as="geometry" />
        </mxCell>
        <mxCell id="0n03NGKNRaiiEo8_zls6-62" value="" style="endArrow=none;html=1;rounded=0;entryX=0;entryY=0;entryDx=0;entryDy=0;exitX=1;exitY=0.5;exitDx=0;exitDy=0;exitPerimeter=0;" edge="1" parent="1" source="0n03NGKNRaiiEo8_zls6-64" target="0n03NGKNRaiiEo8_zls6-15">
          <mxGeometry width="50" height="50" relative="1" as="geometry">
            <mxPoint x="9.999999999999773" y="240" as="sourcePoint" />
            <mxPoint x="130" y="290" as="targetPoint" />
          </mxGeometry>
        </mxCell>
        <mxCell id="0n03NGKNRaiiEo8_zls6-64" value="" style="shape=requiredInterface;html=1;verticalLabelPosition=bottom;sketch=0;" vertex="1" parent="1">
          <mxGeometry x="-5" y="230" width="10" height="20" as="geometry" />
        </mxCell>
        <mxCell id="0n03NGKNRaiiEo8_zls6-65" value="" style="ellipse;whiteSpace=wrap;html=1;" vertex="1" parent="1">
          <mxGeometry x="-10" y="310" width="20" height="20" as="geometry" />
        </mxCell>
        <mxCell id="0n03NGKNRaiiEo8_zls6-66" value="" style="endArrow=none;html=1;rounded=0;entryX=0;entryY=1;entryDx=0;entryDy=0;exitX=1;exitY=0.5;exitDx=0;exitDy=0;" edge="1" parent="1" source="0n03NGKNRaiiEo8_zls6-65" target="0n03NGKNRaiiEo8_zls6-15">
          <mxGeometry width="50" height="50" relative="1" as="geometry">
            <mxPoint x="20" y="290" as="sourcePoint" />
            <mxPoint x="130" y="290" as="targetPoint" />
          </mxGeometry>
        </mxCell>
        <mxCell id="0n03NGKNRaiiEo8_zls6-67" value="Elimina segnalazione" style="text;html=1;align=center;verticalAlign=middle;resizable=0;points=[];autosize=1;strokeColor=none;fillColor=none;" vertex="1" parent="1">
          <mxGeometry x="-140" y="305" width="140" height="30" as="geometry" />
        </mxCell>
        <mxCell id="0n03NGKNRaiiEo8_zls6-68" value="" style="endArrow=none;html=1;rounded=0;entryX=0;entryY=1;entryDx=0;entryDy=0;exitX=1;exitY=0.5;exitDx=0;exitDy=0;" edge="1" parent="1" source="0n03NGKNRaiiEo8_zls6-69" target="0n03NGKNRaiiEo8_zls6-13">
          <mxGeometry width="50" height="50" relative="1" as="geometry">
            <mxPoint x="20" y="450" as="sourcePoint" />
            <mxPoint x="130" y="450" as="targetPoint" />
          </mxGeometry>
        </mxCell>
        <mxCell id="0n03NGKNRaiiEo8_zls6-69" value="" style="ellipse;whiteSpace=wrap;html=1;" vertex="1" parent="1">
          <mxGeometry x="-10" y="510" width="20" height="20" as="geometry" />
        </mxCell>
        <mxCell id="0n03NGKNRaiiEo8_zls6-72" value="Cronologia segnalazioni" style="text;html=1;align=center;verticalAlign=middle;resizable=0;points=[];autosize=1;strokeColor=none;fillColor=none;" vertex="1" parent="1">
          <mxGeometry x="-155" y="505" width="150" height="30" as="geometry" />
        </mxCell>
        <mxCell id="0n03NGKNRaiiEo8_zls6-73" value="" style="endArrow=none;html=1;rounded=0;exitX=0.5;exitY=0;exitDx=0;exitDy=0;entryX=0;entryY=0.5;entryDx=0;entryDy=0;" edge="1" parent="1" source="0n03NGKNRaiiEo8_zls6-7" target="0n03NGKNRaiiEo8_zls6-74">
          <mxGeometry width="50" height="50" relative="1" as="geometry">
            <mxPoint x="970" y="439.17" as="sourcePoint" />
            <mxPoint x="1040" y="439.17" as="targetPoint" />
          </mxGeometry>
        </mxCell>
        <mxCell id="0n03NGKNRaiiEo8_zls6-74" value="" style="ellipse;whiteSpace=wrap;html=1;direction=north;" vertex="1" parent="1">
          <mxGeometry x="830" y="-250" width="20" height="20" as="geometry" />
        </mxCell>
        <mxCell id="0n03NGKNRaiiEo8_zls6-76" value="Conferma creazione profilo" style="text;html=1;align=center;verticalAlign=middle;resizable=0;points=[];autosize=1;strokeColor=none;fillColor=none;" vertex="1" parent="1">
          <mxGeometry x="755" y="-280" width="170" height="30" as="geometry" />
        </mxCell>
        <mxCell id="0n03NGKNRaiiEo8_zls6-78" value="" style="shape=providedRequiredInterface;html=1;verticalLabelPosition=bottom;sketch=0;direction=north;rotation=0;" vertex="1" parent="1">
          <mxGeometry x="830" y="-30" width="20" height="20" as="geometry" />
        </mxCell>
        <mxCell id="0n03NGKNRaiiEo8_zls6-79" value="" style="endArrow=none;html=1;rounded=0;entryX=0.5;entryY=1;entryDx=0;entryDy=0;exitX=1;exitY=0.5;exitDx=0;exitDy=0;exitPerimeter=0;" edge="1" parent="1" source="0n03NGKNRaiiEo8_zls6-78" target="0n03NGKNRaiiEo8_zls6-7">
          <mxGeometry width="50" height="50" relative="1" as="geometry">
            <mxPoint x="730" y="10" as="sourcePoint" />
            <mxPoint x="780" y="-40" as="targetPoint" />
          </mxGeometry>
        </mxCell>
        <mxCell id="0n03NGKNRaiiEo8_zls6-80" value="" style="endArrow=none;html=1;rounded=0;entryX=0;entryY=0.5;entryDx=0;entryDy=0;entryPerimeter=0;exitX=0.5;exitY=0;exitDx=0;exitDy=0;" edge="1" parent="1" source="0n03NGKNRaiiEo8_zls6-9" target="0n03NGKNRaiiEo8_zls6-78">
          <mxGeometry width="50" height="50" relative="1" as="geometry">
            <mxPoint x="730" y="10" as="sourcePoint" />
            <mxPoint x="780" y="-40" as="targetPoint" />
          </mxGeometry>
        </mxCell>
        <mxCell id="0n03NGKNRaiiEo8_zls6-81" value="Dati account" style="text;html=1;align=center;verticalAlign=middle;resizable=0;points=[];autosize=1;strokeColor=none;fillColor=none;" vertex="1" parent="1">
          <mxGeometry x="840" y="-35" width="90" height="30" as="geometry" />
        </mxCell>
        <mxCell id="0n03NGKNRaiiEo8_zls6-82" value="" style="shape=providedRequiredInterface;html=1;verticalLabelPosition=bottom;sketch=0;direction=west;rotation=0;" vertex="1" parent="1">
          <mxGeometry x="670" y="170" width="20" height="20" as="geometry" />
        </mxCell>
        <mxCell id="0n03NGKNRaiiEo8_zls6-83" value="" style="endArrow=none;html=1;rounded=0;entryX=1;entryY=0;entryDx=0;entryDy=0;exitX=1;exitY=0.5;exitDx=0;exitDy=0;exitPerimeter=0;" edge="1" parent="1" source="0n03NGKNRaiiEo8_zls6-82" target="0n03NGKNRaiiEo8_zls6-3">
          <mxGeometry width="50" height="50" relative="1" as="geometry">
            <mxPoint x="720" y="250" as="sourcePoint" />
            <mxPoint x="800" y="140" as="targetPoint" />
            <Array as="points">
              <mxPoint x="600" y="180" />
            </Array>
          </mxGeometry>
        </mxCell>
        <mxCell id="0n03NGKNRaiiEo8_zls6-84" value="" style="endArrow=none;html=1;rounded=0;entryX=0;entryY=1;entryDx=0;entryDy=0;exitX=0;exitY=0.5;exitDx=0;exitDy=0;exitPerimeter=0;" edge="1" parent="1" source="0n03NGKNRaiiEo8_zls6-82" target="0n03NGKNRaiiEo8_zls6-9">
          <mxGeometry width="50" height="50" relative="1" as="geometry">
            <mxPoint x="690" y="130" as="sourcePoint" />
            <mxPoint x="800" y="140" as="targetPoint" />
            <Array as="points">
              <mxPoint x="760" y="180" />
            </Array>
          </mxGeometry>
        </mxCell>
        <mxCell id="0n03NGKNRaiiEo8_zls6-87" value="Nuovo account" style="text;html=1;align=center;verticalAlign=middle;resizable=0;points=[];autosize=1;strokeColor=none;fillColor=none;" vertex="1" parent="1">
          <mxGeometry x="630" y="140" width="100" height="30" as="geometry" />
        </mxCell>
        <mxCell id="0n03NGKNRaiiEo8_zls6-88" value="Dati account" style="text;html=1;align=center;verticalAlign=middle;resizable=0;points=[];autosize=1;strokeColor=none;fillColor=none;" vertex="1" parent="1">
          <mxGeometry x="1000" y="65" width="90" height="30" as="geometry" />
        </mxCell>
        <mxCell id="0n03NGKNRaiiEo8_zls6-89" value="" style="shape=providedRequiredInterface;html=1;verticalLabelPosition=bottom;sketch=0;direction=west;rotation=0;" vertex="1" parent="1">
          <mxGeometry x="670" y="270" width="20" height="20" as="geometry" />
        </mxCell>
        <mxCell id="0n03NGKNRaiiEo8_zls6-90" value="" style="endArrow=none;html=1;rounded=0;entryX=1;entryY=0.5;entryDx=0;entryDy=0;entryPerimeter=0;exitX=1;exitY=0.5;exitDx=0;exitDy=0;" edge="1" parent="1" source="0n03NGKNRaiiEo8_zls6-3" target="0n03NGKNRaiiEo8_zls6-89">
          <mxGeometry width="50" height="50" relative="1" as="geometry">
            <mxPoint x="750" y="280" as="sourcePoint" />
            <mxPoint x="800" y="230" as="targetPoint" />
          </mxGeometry>
        </mxCell>
        <mxCell id="0n03NGKNRaiiEo8_zls6-91" value="" style="endArrow=none;html=1;rounded=0;entryX=0;entryY=0.5;entryDx=0;entryDy=0;exitX=0;exitY=0.5;exitDx=0;exitDy=0;exitPerimeter=0;" edge="1" parent="1" source="0n03NGKNRaiiEo8_zls6-89" target="0n03NGKNRaiiEo8_zls6-11">
          <mxGeometry width="50" height="50" relative="1" as="geometry">
            <mxPoint x="750" y="280" as="sourcePoint" />
            <mxPoint x="800" y="230" as="targetPoint" />
          </mxGeometry>
        </mxCell>
        <mxCell id="0n03NGKNRaiiEo8_zls6-92" value="Credenziali autenticazione" style="text;html=1;align=center;verticalAlign=middle;resizable=0;points=[];autosize=1;strokeColor=none;fillColor=none;" vertex="1" parent="1">
          <mxGeometry x="600" y="240" width="160" height="30" as="geometry" />
        </mxCell>
      </root>
    </mxGraphModel>
  </diagram>
</mxfile>
